# xmcd
#
# Track frame offsets:
#	150
#	21541
#	40391
#	58659
#	76727
#	95328
#	112243
#	131317
#	152227
#	166730
#	188862
#	208464
#	225407
#	252554
#
# Disc length: 3722 seconds
#
# Revision: 1
# Processed by: cddbd v1.5.2PL0 Copyright (c) Steve Scherf et al.
# Submitted via: EasyCDDAExtractor 15.3.0.1
#
DISCID=c00e880e
DTITLE=Mijares - Cappuccino
DYEAR=2004
DGENRE=Latin
TTITLE0=Besar Tu Boca
TTITLE1=Tatuaje
TTITLE2=Celos
TTITLE3=Señales De Amor
TTITLE4=Baby
TTITLE5=La Noche Triste (A Duo Con Gino Vanelli)
TTITLE6=Desencadena Mi Corazon (Unchain My Heart)
TTITLE7=Cappuccino
TTITLE8=Tu Figura
TTITLE9=Cancion Del Corazon
TTITLE10=Si Supieras
TTITLE11=Me Muero Sin Ti
TTITLE12=Rebecca (Bonus Track)
TTITLE13=Data
EXTD=
EXTT0=
EXTT1=
EXTT2=
EXTT3=
EXTT4=
EXTT5=
EXTT6=
EXTT7=
EXTT8=
EXTT9=
EXTT10=
EXTT11=
EXTT12=
EXTT13=
PLAYORDER=
